<?xml version="1.0" encoding="UTF-8" standalone="no" ?>
<!DOCTYPE svg PUBLIC "-//W3C//DTD SVG 1.1//EN" "http://www.w3.org/Graphics/SVG/1.1/DTD/svg11.dtd">
<svg xmlns="http://www.w3.org/2000/svg" xmlns:xlink="http://www.w3.org/1999/xlink" version="1.1" width="1280" height="1024" viewBox="0 0 1280 1024" xml:space="preserve">
<desc>Created with Fabric.js 4.4.0</desc>
<defs>
</defs>
<g transform="matrix(1 0 0 1 640 512)" id="background-logo"  >
<rect style="stroke: none; stroke-width: 0; stroke-dasharray: none; stroke-linecap: butt; stroke-dashoffset: 0; stroke-linejoin: miter; stroke-miterlimit: 4; fill: rgb(255,255,255); fill-opacity: 0; fill-rule: nonzero; opacity: 1;"  paint-order="stroke"  x="-640" y="-512" rx="0" ry="0" width="1280" height="1024" />
</g>
<g transform="matrix(3.2590110006050255 0 0 3.2590110006050255 318.954324875114 409.77763649510615)" id="shape-13963dad-efc3-4577-9c06-cab40053c543"  >
<g style=""  paint-order="stroke"   >
		<g transform="matrix(1 0 0 1 0 0)" id="basic_shape-119_00000039824609629526743860000002299132731822477699_"  >
<path style="stroke: none; stroke-width: 1; stroke-dasharray: none; stroke-linecap: butt; stroke-dashoffset: 0; stroke-linejoin: miter; stroke-miterlimit: 4; fill: rgb(93,144,26); fill-rule: nonzero; opacity: 1;"  paint-order="stroke"  transform=" translate(-50, -50)" d="M 96 70.24524 L 100 70.24524 L 100 100 L 0 100 L 0 70.24524 L 4 70.24524 L 4 96 L 96 96 L 96 70.24524 z M 0 29.7547 L 4 29.7547 L 4 4 L 96 4 L 96 29.7547 L 100 29.7547 L 100 0 L 0 0 L 0 29.7547 z" stroke-linecap="round" />
</g>
</g>
</g>
<g transform="matrix(1.9211538461538462 0 0 1.9211538461538462 858.677526307464 419.87617412959855)" id="text-logo"  >
<g style=""  paint-order="stroke"   >
		<g transform="matrix(1 0 0 1 0 0)" id="text-logo-path-0"  >
<path style="stroke: none; stroke-width: 0; stroke-dasharray: none; stroke-linecap: butt; stroke-dashoffset: 0; stroke-linejoin: miter; stroke-miterlimit: 4; fill: rgb(87,134,31); fill-rule: nonzero; opacity: 1;"  paint-order="stroke"  transform=" translate(-189.9, 17.325)" d="M 33.3 -10.21 L 32.58 0 L 1.57 0 L 1.57 -1.8 Q 3.06 -1.84 4 -2.07 Q 4.95 -2.29 5.44 -2.83 Q 5.94 -3.38 6.12 -4.37 Q 6.3 -5.35 6.3 -6.93 L 6.3 -6.93 L 6.3 -27.72 Q 6.3 -29.29 6.14 -30.26 Q 5.98 -31.23 5.54 -31.79 Q 5.08 -32.35 4.25 -32.56 Q 3.42 -32.76 2.07 -32.85 L 2.07 -32.85 L 2.07 -34.65 L 17.59 -34.65 L 17.59 -32.85 Q 16.06 -32.8 15.14 -32.58 Q 14.22 -32.35 13.72 -31.77 Q 13.23 -31.18 13.07 -30.15 Q 12.91 -29.11 12.91 -27.4 L 12.91 -27.4 L 12.91 -8.55 Q 12.91 -6.66 13.3 -5.47 Q 13.68 -4.27 14.63 -3.62 Q 15.57 -2.97 17.14 -2.72 Q 18.72 -2.48 21.06 -2.48 L 21.06 -2.48 Q 23.67 -2.48 25.43 -2.79 Q 27.18 -3.1 28.37 -3.98 Q 29.56 -4.86 30.29 -6.34 Q 31 -7.83 31.5 -10.21 L 31.5 -10.21 L 33.3 -10.21 Z M 61.97 -1.8 L 61.97 0 L 45.9 0 L 45.9 -1.8 Q 47.43 -1.84 48.35 -2.09 Q 49.27 -2.34 49.77 -3.01 Q 50.27 -3.69 50.45 -4.93 Q 50.63 -6.17 50.63 -8.28 L 50.63 -8.28 L 50.63 -26.37 Q 50.63 -28.26 50.47 -29.5 Q 50.31 -30.73 49.86 -31.45 Q 49.41 -32.17 48.58 -32.47 Q 47.75 -32.76 46.35 -32.85 L 46.35 -32.85 L 46.35 -34.65 L 61.52 -34.65 L 61.52 -32.85 Q 60.12 -32.76 59.29 -32.47 Q 58.45 -32.17 58.01 -31.45 Q 57.55 -30.73 57.4 -29.5 Q 57.24 -28.26 57.24 -26.37 L 57.24 -26.37 L 57.24 -8.28 Q 57.24 -6.17 57.4 -4.93 Q 57.55 -3.69 58.07 -3.01 Q 58.59 -2.34 59.51 -2.09 Q 60.44 -1.84 61.97 -1.8 L 61.97 -1.8 Z M 97.47 -7.79 L 96.44 -10.48 L 83.7 -10.48 Q 81.58 -5.71 81.58 -3.87 L 81.58 -3.87 Q 81.58 -2.52 82.6 -2.16 Q 83.61 -1.8 85.64 -1.8 L 85.64 -1.8 L 85.64 0 L 73.31 0 L 73.31 -1.8 Q 74.39 -1.93 75.17 -2.16 Q 75.96 -2.38 76.57 -2.79 Q 77.17 -3.19 77.63 -3.85 Q 78.08 -4.5 78.48 -5.44 L 78.48 -5.44 L 90.31 -35.1 L 93.64 -35.1 L 104.4 -8.82 Q 105.34 -6.52 106 -5.22 Q 106.65 -3.92 107.39 -3.22 Q 108.13 -2.52 109.1 -2.25 Q 110.07 -1.98 111.6 -1.84 L 111.6 -1.84 L 111.6 0 L 94.59 0 L 94.59 -1.84 Q 96.75 -1.93 97.69 -2.29 Q 98.64 -2.65 98.64 -3.73 L 98.64 -3.73 Q 98.64 -4.37 98.33 -5.35 Q 98.01 -6.34 97.47 -7.79 L 97.47 -7.79 Z M 90.09 -26.82 L 84.73 -13.18 L 95.44 -13.18 L 90.27 -26.82 L 90.09 -26.82 Z M 156.78 0.45 L 150.75 0.45 L 130.81 -27.95 L 130.63 -27.95 L 130.63 -8.59 Q 130.63 -6.34 130.79 -5.04 Q 130.95 -3.73 131.47 -3.01 Q 131.98 -2.29 132.91 -2.07 Q 133.83 -1.84 135.31 -1.8 L 135.31 -1.8 L 135.31 0 L 121.95 0 L 121.95 -1.8 Q 123.61 -1.84 124.63 -2.09 Q 125.64 -2.34 126.2 -3.01 Q 126.77 -3.69 126.94 -4.93 Q 127.13 -6.17 127.13 -8.28 L 127.13 -8.28 L 127.13 -26.37 Q 127.13 -28.26 126.94 -29.5 Q 126.77 -30.73 126.27 -31.45 Q 125.77 -32.17 124.85 -32.47 Q 123.93 -32.76 122.4 -32.85 L 122.4 -32.85 L 122.4 -34.65 L 134.95 -34.65 L 153.09 -8.64 L 153.27 -8.64 L 153.27 -26.05 Q 153.27 -28.26 153.11 -29.59 Q 152.95 -30.91 152.44 -31.63 Q 151.92 -32.35 151 -32.58 Q 150.07 -32.8 148.59 -32.85 L 148.59 -32.85 L 148.59 -34.65 L 161.95 -34.65 L 161.95 -32.85 Q 160.29 -32.8 159.28 -32.56 Q 158.26 -32.31 157.7 -31.63 Q 157.14 -30.96 156.96 -29.7 Q 156.78 -28.44 156.78 -26.37 L 156.78 -26.37 L 156.78 0.45 Z M 208.39 -13.18 L 208.39 -7.25 Q 208.39 -5.54 208.55 -4.5 Q 208.71 -3.46 209.16 -2.88 Q 209.61 -2.29 210.44 -2.07 Q 211.27 -1.84 212.67 -1.8 L 212.67 -1.8 L 212.67 0 L 197.05 0 L 197.05 -1.8 Q 198.54 -1.84 199.48 -2.07 Q 200.43 -2.29 200.92 -2.83 Q 201.42 -3.38 201.6 -4.37 Q 201.78 -5.35 201.78 -6.93 L 201.78 -6.93 L 201.78 -27.72 Q 201.78 -29.25 201.62 -30.24 Q 201.46 -31.23 201.01 -31.77 Q 200.56 -32.31 199.73 -32.53 Q 198.9 -32.76 197.55 -32.85 L 197.55 -32.85 L 197.55 -34.65 L 213.07 -34.65 L 213.07 -32.85 Q 211.54 -32.8 210.62 -32.58 Q 209.7 -32.35 209.2 -31.77 Q 208.71 -31.18 208.55 -30.15 Q 208.39 -29.11 208.39 -27.4 L 208.39 -27.4 L 208.39 -17.41 L 220.05 -29.92 Q 221.08 -31.05 221.08 -31.81 L 221.08 -31.81 Q 221.08 -32.31 220.43 -32.58 Q 219.78 -32.85 218.02 -32.85 L 218.02 -32.85 L 218.02 -34.65 L 230.31 -34.65 L 230.31 -32.89 Q 229.32 -32.85 228.58 -32.71 Q 227.83 -32.58 227.09 -32.13 Q 226.35 -31.68 225.43 -30.85 Q 224.5 -30.02 223.16 -28.62 L 223.16 -28.62 L 215.14 -20.25 L 228.38 -4.14 Q 229.32 -2.97 230.47 -2.43 Q 231.61 -1.89 233.41 -1.8 L 233.41 -1.8 L 233.41 0 L 216.76 0 L 216.76 -1.8 Q 218.61 -1.84 219.42 -2.11 Q 220.23 -2.38 220.23 -3.01 L 220.23 -3.01 Q 220.23 -3.24 220.16 -3.44 Q 220.09 -3.65 219.94 -3.94 Q 219.78 -4.23 219.46 -4.66 Q 219.15 -5.08 218.61 -5.71 L 218.61 -5.71 L 210.64 -15.52 L 208.39 -13.18 Z M 279 -27.4 L 279 -7.25 Q 279 -5.54 279.16 -4.48 Q 279.31 -3.42 279.83 -2.86 Q 280.35 -2.29 281.27 -2.07 Q 282.19 -1.84 283.73 -1.8 L 283.73 -1.8 L 283.73 0 L 267.21 0 L 267.21 -1.8 Q 268.88 -1.84 269.89 -2.07 Q 270.9 -2.29 271.46 -2.83 Q 272.02 -3.38 272.2 -4.37 Q 272.38 -5.35 272.38 -6.93 L 272.38 -6.93 L 272.38 -16.34 L 255.69 -16.34 L 255.69 -7.25 Q 255.69 -5.54 255.87 -4.48 Q 256.05 -3.42 256.59 -2.86 Q 257.13 -2.29 258.14 -2.07 Q 259.16 -1.84 260.82 -1.8 L 260.82 -1.8 L 260.82 0 L 244.35 0 L 244.35 -1.8 Q 245.88 -1.84 246.8 -2.07 Q 247.72 -2.29 248.22 -2.83 Q 248.72 -3.38 248.9 -4.37 Q 249.08 -5.35 249.08 -6.93 L 249.08 -6.93 L 249.08 -27.72 Q 249.08 -29.29 248.92 -30.26 Q 248.76 -31.23 248.31 -31.79 Q 247.86 -32.35 247.03 -32.56 Q 246.19 -32.76 244.84 -32.85 L 244.84 -32.85 L 244.84 -34.65 L 260.37 -34.65 L 260.37 -32.85 Q 258.84 -32.8 257.92 -32.58 Q 257 -32.35 256.5 -31.77 Q 256 -31.18 255.85 -30.15 Q 255.69 -29.11 255.69 -27.4 L 255.69 -27.4 L 255.69 -19.13 L 272.38 -19.13 L 272.38 -27.72 Q 272.38 -29.29 272.2 -30.26 Q 272.02 -31.23 271.53 -31.79 Q 271.04 -32.35 270.11 -32.56 Q 269.19 -32.76 267.66 -32.85 L 267.66 -32.85 L 267.66 -34.65 L 283.23 -34.65 L 283.23 -32.85 Q 281.88 -32.8 281.05 -32.58 Q 280.22 -32.35 279.76 -31.77 Q 279.31 -31.18 279.16 -30.15 Q 279 -29.11 279 -27.4 L 279 -27.4 Z M 308.52 -30.6 L 308.52 -19.17 Q 311.4 -19.17 313.16 -19.35 Q 314.91 -19.53 315.88 -20.09 Q 316.85 -20.65 317.25 -21.73 Q 317.66 -22.81 317.88 -24.66 L 317.88 -24.66 L 319.55 -24.66 L 319.55 -11.47 L 317.88 -11.47 Q 317.61 -13.28 317.16 -14.35 Q 316.71 -15.43 315.72 -16 Q 314.73 -16.56 313.04 -16.72 Q 311.36 -16.88 308.52 -16.88 L 308.52 -16.88 L 308.52 -7.6 Q 308.52 -6.17 308.9 -5.17 Q 309.29 -4.18 310.19 -3.58 Q 311.09 -2.97 312.57 -2.72 Q 314.06 -2.48 316.22 -2.48 L 316.22 -2.48 Q 318.78 -2.48 320.56 -2.83 Q 322.34 -3.19 323.5 -4.09 Q 324.68 -5 325.4 -6.5 Q 326.12 -8.01 326.61 -10.3 L 326.61 -10.3 L 328.41 -10.3 L 327.69 0 L 297.18 0 L 297.18 -1.8 Q 298.67 -1.84 299.61 -2.07 Q 300.56 -2.29 301.05 -2.83 Q 301.55 -3.38 301.73 -4.37 Q 301.91 -5.35 301.91 -6.93 L 301.91 -6.93 L 301.91 -27.72 Q 301.91 -29.29 301.75 -30.26 Q 301.59 -31.23 301.14 -31.79 Q 300.69 -32.35 299.86 -32.56 Q 299.03 -32.76 297.68 -32.85 L 297.68 -32.85 L 297.68 -34.65 L 326.12 -34.65 L 326.43 -25.83 L 324.5 -25.83 Q 324.23 -27.72 323.64 -28.96 Q 323.06 -30.2 322.02 -30.94 Q 320.99 -31.68 319.34 -31.97 Q 317.7 -32.27 315.31 -32.27 L 315.31 -32.27 L 310.23 -32.27 Q 309.06 -32.27 308.79 -31.97 Q 308.52 -31.68 308.52 -30.6 L 308.52 -30.6 Z M 353.21 -13.18 L 353.21 -7.25 Q 353.21 -5.54 353.36 -4.5 Q 353.52 -3.46 353.97 -2.88 Q 354.42 -2.29 355.25 -2.07 Q 356.09 -1.84 357.48 -1.8 L 357.48 -1.8 L 357.48 0 L 341.87 0 L 341.87 -1.8 Q 343.35 -1.84 344.3 -2.07 Q 345.24 -2.29 345.74 -2.83 Q 346.23 -3.38 346.41 -4.37 Q 346.59 -5.35 346.59 -6.93 L 346.59 -6.93 L 346.59 -27.72 Q 346.59 -29.25 346.43 -30.24 Q 346.28 -31.23 345.83 -31.77 Q 345.38 -32.31 344.54 -32.53 Q 343.71 -32.76 342.36 -32.85 L 342.36 -32.85 L 342.36 -34.65 L 357.88 -34.65 L 357.88 -32.85 Q 356.36 -32.8 355.43 -32.58 Q 354.51 -32.35 354.02 -31.77 Q 353.52 -31.18 353.36 -30.15 Q 353.21 -29.11 353.21 -27.4 L 353.21 -27.4 L 353.21 -17.41 L 364.86 -29.92 Q 365.9 -31.05 365.9 -31.81 L 365.9 -31.81 Q 365.9 -32.31 365.24 -32.58 Q 364.59 -32.85 362.84 -32.85 L 362.84 -32.85 L 362.84 -34.65 L 375.12 -34.65 L 375.12 -32.89 Q 374.13 -32.85 373.39 -32.71 Q 372.65 -32.58 371.9 -32.13 Q 371.16 -31.68 370.24 -30.85 Q 369.31 -30.02 367.97 -28.62 L 367.97 -28.62 L 359.96 -20.25 L 373.19 -4.14 Q 374.13 -2.97 375.28 -2.43 Q 376.43 -1.89 378.23 -1.8 L 378.23 -1.8 L 378.23 0 L 361.58 0 L 361.58 -1.8 Q 363.42 -1.84 364.23 -2.11 Q 365.04 -2.38 365.04 -3.01 L 365.04 -3.01 Q 365.04 -3.24 364.97 -3.44 Q 364.91 -3.65 364.75 -3.94 Q 364.59 -4.23 364.28 -4.66 Q 363.96 -5.08 363.42 -5.71 L 363.42 -5.71 L 355.46 -15.52 L 353.21 -13.18 Z" stroke-linecap="round" />
</g>
</g>
</g>
<g transform="matrix(1.9211538461538462 0 0 1.9211538461538462 326.3169114339635 411.75453306295)" id="tagline-a3131ef0-8de0-4d8d-97cf-e791b6c87347-logo"  >
<g style=""  paint-order="stroke"   >
		<g transform="matrix(1 0 0 1 0 0)" id="tagline-a3131ef0-8de0-4d8d-97cf-e791b6c87347-logo-path-0"  >
<path style="stroke: none; stroke-width: 0; stroke-dasharray: none; stroke-linecap: butt; stroke-dashoffset: 0; stroke-linejoin: miter; stroke-miterlimit: 4; fill: rgb(87,134,31); fill-rule: nonzero; opacity: 1;"  paint-order="stroke"  transform=" translate(-46.550000000000004, 60.375)" d="M 87.5 -30.45 L 87.5 0 L 7.35 0 L 5.6 -14.53 Q 7.88 -17.5 15.23 -20.3 L 15.23 -20.3 L 15.23 -100.28 Q 8.05 -102.9 5.6 -106.23 L 5.6 -106.23 L 7.35 -120.75 L 48.3 -120.75 L 50.05 -106.23 Q 47.25 -102.9 40.43 -100.28 L 40.43 -100.28 L 40.43 -19.08 L 68.08 -19.08 Q 70.35 -28.18 74.55 -32.03 L 74.55 -32.03 L 87.5 -30.45 Z" stroke-linecap="round" />
</g>
</g>
</g>
</svg>